PathFileType	4	(X/Y/Z)	50_2_89_p0_0-400.trc
DataRate	CameraRate	NumFrames	NumMarkers	Units	OrigDataRate	OrigDataStartFrame	OrigNumFrames
42.0	42.0	5	27	m	42.0	350	401
Frame#	Time	RHip			RKnee			RAnkle			RBigToe			RSmallToe			RHeel			LHip			LKnee			LAnkle			LBigToe			LSmallToe			LHeel			Neck			Head			Nose			RShoulder			RElbow			RWrist			RThumb			RIndex			RPinky			LShoulder			LElbow			LWrist			LThumb			LIndex			LPinky			
		X1	Y1	Z1	X2	Y2	Z2	X3	Y3	Z3	X4	Y4	Z4	X5	Y5	Z5	X6	Y6	Z6	X7	Y7	Z7	X8	Y8	Z8	X9	Y9	Z9	X10	Y10	Z10	X11	Y11	Z11	X12	Y12	Z12	X13	Y13	Z13	X14	Y14	Z14	X15	Y15	Z15	X16	Y16	Z16	X17	Y17	Z17	X18	Y18	Z18	X19	Y19	Z19	X20	Y20	Z20	X21	Y21	Z21	X22	Y22	Z22	X23	Y23	Z23	X24	Y24	Z24	X25	Y25	Z25	X26	Y26	Z26	X27	Y27	Z27	
350	8.333333333333334	0.3085386773316132	0.7064273500241883	0.5284613073725671	0.27664826394848835	0.7845699768146608	0.935155167743466	0.30478330179045815	0.9688453841381395	1.3524344289159527	0.2679297295061143	0.8445709935687119	1.4158827011317925	0.3362643014641964	0.8379928614992664	1.4104058814404292	0.2870921842241894	1.0560172027429895	1.4115608604016228	0.13203463236419088	0.7002663290395519	0.5097247631261782	0.12195428844369915	0.8456196649020012	0.9325176903162795	0.10321942343026055	1.0140726227203016	1.361184996292568	0.09285040627994647	0.8448664518922734	1.394997180134346	0.04028932695021039	0.8832532474760139	1.3860566842525446	0.1193433096840633	1.0812552029805322	1.4131915989898463	0.2907023853842737	0.6439038394245941	0.004000514032446761	0.3125895917783498	0.5274256136297517	-0.21285589948616448	0.2680460122030215	0.5189451603772856	-0.08083915933820263	0.3945009023027694	0.6098460445703465	0.11529381298268342	0.23032388776918464	0.44366631193257733	0.26149486499246777	0.007809365206058278	0.3763919742681324	0.32290579662507335	-0.08665302531054807	0.3067318862263452	0.29459837111789683	-0.10675958089771885	0.2843344838733738	0.29091695023857206	-0.07194798322960581	0.32071019998074407	0.2621121600583957	0.13011775635879802	0.7469516674624902	0.06268825936226131	-0.007866623809942956	0.5997627210239239	0.30006779321500743	-0.12908242442088458	0.4505984660113809	0.399434220027096	-0.19451342645685643	0.42607590972635634	0.3986587036499598	-0.22828379252593048	0.41777160630138743	0.3609114436302721	-0.20710695612464658	0.3618185560540141	0.3829035071992094
351	8.357142857142858	0.3077366935316053	0.7046112740169236	0.5280252585840379	0.28152789992583377	0.7984360260449251	0.9414225471040245	0.30478644323350584	0.9689606119893556	1.3524691443922188	0.26789344666750875	0.8442585568292693	1.4159251351816946	0.33906080609661843	0.8207996434608511	1.4049233160373056	0.2871062651779086	1.056136140267738	1.4116420915835803	0.130973497141734	0.6981998086489111	0.509151516848117	0.12174074226077575	0.8456716855963897	0.9326185410151568	0.10222636516593285	1.0160979243338226	1.3660285558308423	0.09286957441126761	0.8453525580994709	1.394966061839763	0.039904187311791496	0.8830205133147867	1.3941856739528913	0.11810008831992304	1.0833599698292695	1.4187352394472361	0.2906774778226006	0.6442905552602186	0.004163552667770269	0.30970879762900594	0.5405033159697863	-0.2154399502589636	0.2685694221828537	0.5206701959822865	-0.07768491163553318	0.39714853994720445	0.5950583647761951	0.11632238888074097	0.22978625933750693	0.44323718500418463	0.2649606483728062	0.012831194180214188	0.355488237189225	0.3271903857412229	-0.08563266925310054	0.2894746665520993	0.30333839330710294	-0.10021299667972933	0.2868081169530581	0.2890551630997104	-0.0798343274507309	0.3359291043852651	0.2864371864024805	0.1297799105887781	0.7450902014998911	0.05910579343839258	-0.013216989775009909	0.6225250223094358	0.2834220592958084	-0.1368483683661147	0.4607860603572604	0.3954224122769317	-0.19964087338256542	0.4406802099694669	0.3964758129118466	-0.22489253537300516	0.42125713969964557	0.36437583314863103	-0.200952123811049	0.3632029960006691	0.38220815704590144
352	8.380952380952381	0.3144793479134568	0.6749769940458755	0.5304431248133246	0.2757142365155828	0.7825746173735346	0.9309860167501482	0.30480783740809536	0.9690401383851813	1.3525054515650352	0.26679042078096166	0.8414663105694578	1.4112865223824915	0.3313851603719162	0.8371904487494088	1.4101823252437307	0.2872348873932515	1.0562101256723881	1.4116703758071685	0.13494389081784824	0.6832565093876072	0.5085618798114646	0.1259643915251075	0.8287044400559114	0.9297117482917941	0.1032731248134349	1.014928580015306	1.361257367646007	0.09297252250219169	0.8448875267383127	1.395058836537406	0.039607467608324724	0.8838959553704102	1.3946505865579022	0.11806470284984102	1.0838810240549193	1.418881857071543	0.29043269446218406	0.6430539482066626	0.004084008033068111	0.31386320844108456	0.5534378364792455	-0.21815613224263194	0.26872773088009905	0.5204115456903864	-0.08073062111276307	0.3946569337268136	0.6096813577576393	0.11514756924803281	0.22922220817027553	0.4202685261295505	0.2732113042731155	0.009419753210363164	0.3713400318876886	0.33751181073332104	-0.07175004468295235	0.3330840315911377	0.3162008959537737	-0.04772633079784763	0.1457747844738165	0.3021517838689949	-0.09162571107924324	0.3384644063004116	0.31858711389095107	0.12961452039477567	0.7452751974611	0.054882211345654554	-0.01014035666082913	0.665587311609893	0.25517965971938467	-0.12024934915003052	0.4858932897609747	0.3773891659004203	-0.14916757756521573	0.3837376907540174	0.39888275503641796	-0.17266365939520584	0.36160465921253204	0.3804110290614062	-0.17547183939442806	0.3651679974508728	0.4030684057669549
353	8.404761904761905	0.3146110790214648	0.674519529291352	0.530224204304073	0.2757373816599026	0.7825961392691906	0.930853737899061	0.3094993019691041	0.970557142186573	1.352945228752779	0.26684278331843947	0.8412116487255052	1.4111608964622044	0.3267955542644785	0.8225704854985587	1.4057564387998216	0.29176478312727594	1.058082075649759	1.4124201056813235	0.13516974775132612	0.6834072108357978	0.5043075101421614	0.12160650304463336	0.8267462127754448	0.9291768149084966	0.09792380573584483	1.03469963978896	1.3713539137596893	0.0929555416817918	0.8449516568315126	1.3950189410686402	0.03977507441315671	0.8831248293898792	1.3943796674523459	0.11818531467042948	1.0849956741724047	1.4191700809516339	0.29004592609509255	0.6425542473392654	0.0002652583388175361	0.3138758327777662	0.5536997013883559	-0.21826902548558308	0.27116990152125925	0.5045024056747154	-0.08219709590632174	0.39471378487713255	0.6099389584661665	0.11497054212663117	0.23663941820721673	0.42030587924481694	0.2769457262909436	0.009151727419716546	0.37640361323566945	0.35816553942718404	-0.07362823822864512	0.3660672874286773	0.3275369739594701	-0.08031719941422195	0.36920437603439654	0.3638851690182034	-0.0795558341026497	0.38763063137270237	0.38349207341004915	0.13334680371775054	0.7593951110737056	0.053140201439624675	-0.02203097068242708	0.7209673152732946	0.2291710308380175	-0.10260344831310293	0.5386280603329232	0.3671020218320358	-0.1036771182761704	0.3917814458419065	0.3993870661840079	-0.12670023022329144	0.3648210140274909	0.42435033315386667	-0.1323046209722967	0.4163426875952219	0.44425317744065396
354	8.428571428571429	0.31031458857171584	0.689117897752539	0.5262789086348078	0.27589461059049614	0.7827268271665602	0.9307556883729851	0.3095607917122695	0.9706691955494431	1.352947594711161	0.2668329364074438	0.8413692583581035	1.4112324979641753	0.3267825042199957	0.8226352273849219	1.405790323510578	0.291835671582021	1.0583005995118355	1.4123709209585056	0.12985916131118577	0.7002737311823635	0.5048775604907138	0.12158922510205306	0.8266226939832629	0.9290625746020574	0.09893167803081052	1.0331573691081928	1.366563557838133	0.09303039722320441	0.8449176973539025	1.3950995081776814	0.039653221764159315	0.8834361503811233	1.3946078261122394	0.11818024940547468	1.0851884826684637	1.4192280951783736	0.2899713285031054	0.6427167833236614	0.00011840182123709166	0.31070195414393964	0.5671615646995685	-0.22476212632107323	0.2709903340616428	0.5035704608323749	-0.08552188273550389	0.3949650165606733	0.6091626001148733	0.11135811971578963	0.248510401403604	0.41988106191005536	0.2767788170865953	0.03851301114846281	0.3869870104576974	0.37318533119166575	-0.04878015369069345	0.41595598044930304	0.3676404094898607	-0.07527930838883064	0.3858266719563525	0.3941546158190081	-0.05183594138031451	0.3986731289421809	0.42085956254280515	0.13730496079275484	0.7602821321497595	0.052792895030672936	-0.020646210812305766	0.7059420923548732	0.22249369825781518	-0.10077015411723492	0.5512919569326172	0.36385132171063417	-0.08512075771102721	0.3957086490340382	0.4076234860323752	-0.11046107949852477	0.37671415226687144	0.4279858496359012	-0.11929474444874114	0.38182668870743813	0.4461429752663784
